<svg xmlns="http://www.w3.org/2000/svg" width="96" height="96" viewBox="0 0 96 96">
  <defs>
    <linearGradient id="lgStarFill" x1="0" y1="0" x2="0" y2="1">
      <stop offset="0" stop-color="#d8ff68"/>
      <stop offset="0.45" stop-color="#a7ff3b"/>
      <stop offset="1" stop-color="#25e97a"/>
    </linearGradient>
    <radialGradient id="rgGlow">
      <stop offset="0" stop-color="#b6ff5b" stop-opacity="0.95"/>
      <stop offset="0.6" stop-color="#62ff73" stop-opacity="0.38"/>
      <stop offset="1" stop-color="#00ff6a" stop-opacity="0"/>
    </radialGradient>
    <path id="starCore" d="M0 -10 L 3 -3 L 10 0 L 3 3 L 0 10 L -3 3 L -10 0 L -3 -3 Z" />
  </defs>

  <!-- Frame 1 -->
  <g id="frame-1" transform="translate(0,0)">
    <circle cx="16" cy="16" r="10.2" fill="url(#rgGlow)" opacity="0.9"/>
    <use href="#starCore" transform="translate(16,16) scale(0.82)" fill="url(#lgStarFill)" stroke="#0a5a2c" stroke-width="1.6" stroke-linejoin="round" stroke-linecap="round" vector-effect="non-scaling-stroke"/>
    <polygon points="24,8 26,10 24,12 22,10" fill="#eaffb4" stroke="#0a5a2c" stroke-width="1.1"/>
    <polygon points="8,24 10,26 8,28 6,26" fill="#eaffb4" stroke="#0a5a2c" stroke-width="1.1"/>
    <path d="M21 16 h3 M22.5 14.5 v3" stroke="#baff7e" stroke-width="1.1" stroke-linecap="round" opacity="0.8"/>
  </g>

  <!-- Frame 2 -->
  <g id="frame-2" transform="translate(32,0)">
    <circle cx="16" cy="16" r="11" fill="url(#rgGlow)" opacity="0.9"/>
    <use href="#starCore" transform="translate(16,16) rotate(12) scale(0.95)" fill="url(#lgStarFill)" stroke="#0a5a2c" stroke-width="1.6" stroke-linejoin="round" stroke-linecap="round" vector-effect="non-scaling-stroke"/>
    <path d="M5 16 C 8 13, 11 13, 14 16" fill="none" stroke="#7dff72" stroke-width="1.6" stroke-linecap="round" stroke-opacity="0.7"/>
    <path d="M7 18 C 10 17, 12 17, 14 18" fill="none" stroke="#7dff72" stroke-width="1.2" stroke-linecap="round" stroke-opacity="0.55"/>
    <polygon points="25,7 27,9 25,11 23,9" fill="#eaffb4" stroke="#0a5a2c" stroke-width="1"/>
  </g>

  <!-- Frame 3 -->
  <g id="frame-3" transform="translate(64,0)">
    <circle cx="16" cy="16" r="12" fill="url(#rgGlow)" opacity="0.95"/>
    <use href="#starCore" transform="translate(16,16) rotate(25) scale(1.12)" fill="url(#lgStarFill)" stroke="#0a5a2c" stroke-width="1.6" stroke-linejoin="round" stroke-linecap="round" vector-effect="non-scaling-stroke"/>
    <circle cx="16" cy="16" r="13.2" fill="none" stroke="#baff7e" stroke-width="1.2" stroke-opacity="0.7"/>
    <polygon points="16,2 18,4 16,6 14,4" fill="#eaffb4" stroke="#0a5a2c" stroke-width="1"/>
    <polygon points="30,16 28,18 26,16 28,14" fill="#eaffb4" stroke="#0a5a2c" stroke-width="1"/>
  </g>

  <!-- Frame 4 -->
  <g id="frame-4" transform="translate(0,32)">
    <circle cx="16" cy="16" r="10.4" fill="url(#rgGlow)" opacity="0.9"/>
    <use href="#starCore" transform="translate(16,16) rotate(45) scale(0.92)" fill="url(#lgStarFill)" stroke="#0a5a2c" stroke-width="1.6" stroke-linejoin="round" stroke-linecap="round" vector-effect="non-scaling-stroke"/>
    <path d="M6 19 Q 10 10 16 12 T 26 15" fill="none" stroke="#8dff7a" stroke-width="1.4" stroke-linecap="round" stroke-opacity="0.75"/>
    <circle cx="26" cy="15" r="1.5" fill="#cfff9b" stroke="#0a5a2c" stroke-width="0.8"/>
  </g>

  <!-- Frame 5 -->
  <g id="frame-5" transform="translate(32,32)">
    <circle cx="16" cy="16" r="9.2" fill="url(#rgGlow)" opacity="0.85"/>
    <use href="#starCore" transform="translate(16,16) rotate(62) scale(0.75)" fill="url(#lgStarFill)" stroke="#0a5a2c" stroke-width="1.6" stroke-linejoin="round" stroke-linecap="round" vector-effect="non-scaling-stroke"/>
    <path d="M6 16 A 10 10 0 0 1 12 7" fill="none" stroke="#baff7e" stroke-width="1.3" stroke-linecap="round" stroke-opacity="0.7"/>
    <path d="M20 25 A 10 10 0 0 1 26 16" fill="none" stroke="#7dff72" stroke-width="1.3" stroke-linecap="round" stroke-opacity="0.6"/>
    <circle cx="24" cy="9" r="1.3" fill="#eaffb4" stroke="#0a5a2c" stroke-width="0.8"/>
  </g>

  <!-- Frame 6 -->
  <g id="frame-6" transform="translate(64,32)">
    <circle cx="16" cy="16" r="11" fill="url(#rgGlow)" opacity="0.92"/>
    <use href="#starCore" transform="translate(16,16) rotate(86) scale(1.0)" fill="url(#lgStarFill)" stroke="#0a5a2c" stroke-width="1.6" stroke-linejoin="round" stroke-linecap="round" vector-effect="non-scaling-stroke"/>
    <path d="M16 4 L16 8 M16 24 L16 28 M4 16 L8 16 M24 16 L28 16" stroke="#caff9f" stroke-width="1.4" stroke-linecap="round" opacity="0.85"/>
    <path d="M8 8 L10 10 M22 22 L24 24 M8 24 L10 22 M22 10 L24 8" stroke="#96ff83" stroke-width="1.1" stroke-linecap="round" opacity="0.7"/>
  </g>

  <!-- Frame 7 -->
  <g id="frame-7" transform="translate(0,64)">
    <circle cx="16" cy="16" r="8.5" fill="url(#rgGlow)" opacity="0.8"/>
    <use href="#starCore" transform="translate(16,16) rotate(102) scale(0.6)" fill="url(#lgStarFill)" stroke="#0a5a2c" stroke-width="1.6" stroke-linejoin="round" stroke-linecap="round" vector-effect="non-scaling-stroke"/>
    <ellipse cx="16" cy="16" rx="12" ry="6" fill="none" stroke="#a3ff79" stroke-width="1.1" stroke-opacity="0.55" stroke-dasharray="3 2"/>
    <circle cx="25" cy="16" r="1.6" fill="#eaffb4" stroke="#0a5a2c" stroke-width="0.8"/>
    <circle cx="7" cy="16" r="1.3" fill="#dfffab" stroke="#0a5a2c" stroke-width="0.7"/>
  </g>

  <!-- Frame 8 -->
  <g id="frame-8" transform="translate(32,64)">
    <circle cx="16" cy="16" r="10.6" fill="url(#rgGlow)" opacity="0.92"/>
    <use href="#starCore" transform="translate(16,16) rotate(120) scale(0.9)" fill="url(#lgStarFill)" stroke="#0a5a2c" stroke-width="1.6" stroke-linejoin="round" stroke-linecap="round" vector-effect="non-scaling-stroke"/>
    <polygon points="16,2 17,6 15,6" fill="#b3ff80" opacity="0.8"/>
    <polygon points="30,16 26,17 26,15" fill="#b3ff80" opacity="0.8"/>
    <polygon points="16,30 15,26 17,26" fill="#b3ff80" opacity="0.8"/>
    <polygon points="2,16 6,15 6,17" fill="#b3ff80" opacity="0.8"/>
    <circle cx="16" cy="16" r="13" fill="none" stroke="#9cff76" stroke-width="0.9" stroke-opacity="0.5"/>
  </g>
</svg>