<svg xmlns="http://www.w3.org/2000/svg" width="96" height="96" viewBox="0 0 96 96">
  <defs>
    <linearGradient id="gradVioletCore" x1="0" y1="0" x2="0" y2="1">
      <stop offset="0" stop-color="#ff9cff"/>
      <stop offset="0.55" stop-color="#b26bff"/>
      <stop offset="1" stop-color="#5d2aff"/>
    </linearGradient>
    <radialGradient id="gradGlowViolet">
      <stop offset="0" stop-color="#c78dff" stop-opacity="0.95"/>
      <stop offset="0.55" stop-color="#8a57ff" stop-opacity="0.5"/>
      <stop offset="1" stop-color="#8a57ff" stop-opacity="0"/>
    </radialGradient>
    <radialGradient id="gradHighlight">
      <stop offset="0" stop-color="#ffffff" stop-opacity="0.95"/>
      <stop offset="1" stop-color="#ffffff" stop-opacity="0"/>
    </radialGradient>
  </defs>

  <!-- Frame 1 -->
  <g id="frame1-opt2-03ec7a1c" transform="translate(0,0)">
    <g transform="translate(16,16)">
      <circle cx="0" cy="0" r="8" fill="url(#gradGlowViolet)" fill-opacity="0.35"/>
      <g transform="rotate(0) scale(0.6)">
        <path d="M 0,-10 L 1.531,-3.696 L 7.071,-7.071 L 3.696,-1.531 L 10,0 L 3.696,1.531 L 7.071,7.071 L 1.531,3.696 L 0,10 L -1.531,3.696 L -7.071,7.071 L -3.696,1.531 L -10,0 L -3.696,-1.531 L -7.071,-7.071 L -1.531,-3.696 Z" fill="url(#gradVioletCore)" stroke="#3a0a6a" stroke-width="1.4" stroke-linejoin="round" stroke-linecap="round"/>
        <circle cx="0" cy="0" r="1.6" fill="#ffffff" fill-opacity="0.65"/>
        <circle cx="3.2" cy="-3.2" r="2.3" fill="url(#gradHighlight)"/>
      </g>
      <rect x="7.5" y="-8.5" width="3" height="3" rx="0.6" ry="0.6" fill="#ffd6ff" stroke="#5b138e" stroke-width="0.6" transform="rotate(45 9  -7)"/>
    </g>
  </g>

  <!-- Frame 2 -->
  <g id="frame2-opt2-03ec7a1c" transform="translate(32,0)">
    <g transform="translate(16,16)">
      <circle cx="0" cy="0" r="13" fill="url(#gradGlowViolet)" fill-opacity="0.55"/>
      <g transform="rotate(10) scale(1)">
        <path d="M 0,-10 L 1.531,-3.696 L 7.071,-7.071 L 3.696,-1.531 L 10,0 L 3.696,1.531 L 7.071,7.071 L 1.531,3.696 L 0,10 L -1.531,3.696 L -7.071,7.071 L -3.696,1.531 L -10,0 L -3.696,-1.531 L -7.071,-7.071 L -1.531,-3.696 Z" fill="url(#gradVioletCore)" stroke="#30105f" stroke-width="1.4" stroke-linejoin="round" stroke-linecap="round"/>
        <circle cx="0" cy="0" r="1.8" fill="#ffffff" fill-opacity="0.7"/>
        <circle cx="3.6" cy="-3.4" r="2.6" fill="url(#gradHighlight)"/>
      </g>
      <rect x="12.5" y="-1.5" width="3" height="3" rx="0.6" ry="0.6" fill="#ffe6ff" stroke="#6b2bbf" stroke-width="0.6" transform="rotate(45 14 0)"/>
      <rect x="-12.5" y="-11.5" width="3" height="3" rx="0.6" ry="0.6" fill="#ffe6ff" stroke="#6b2bbf" stroke-width="0.6" transform="rotate(45 -11 -10)"/>
    </g>
  </g>

  <!-- Frame 3 -->
  <g id="frame3-opt2-03ec7a1c" transform="translate(64,0)">
    <g transform="translate(16,16)">
      <circle cx="0" cy="0" r="16" fill="url(#gradGlowViolet)" fill-opacity="0.8"/>
      <g transform="rotate(20) scale(1.3)">
        <path d="M 0,-10 L 1.531,-3.696 L 7.071,-7.071 L 3.696,-1.531 L 10,0 L 3.696,1.531 L 7.071,7.071 L 1.531,3.696 L 0,10 L -1.531,3.696 L -7.071,7.071 L -3.696,1.531 L -10,0 L -3.696,-1.531 L -7.071,-7.071 L -1.531,-3.696 Z" fill="url(#gradVioletCore)" stroke="#2a0b57" stroke-width="1.4" stroke-linejoin="round" stroke-linecap="round"/>
        <circle cx="0" cy="0" r="2.1" fill="#ffffff" fill-opacity="0.72"/>
        <circle cx="3.6" cy="-3.4" r="2.8" fill="url(#gradHighlight)"/>
      </g>
      <rect x="13.5" y="3.5" width="3.2" height="3.2" rx="0.7" ry="0.7" fill="#ffe6ff" stroke="#6b2bbf" stroke-width="0.6" transform="rotate(45 15.1 5.1)"/>
      <rect x="-14.5" y="-4.5" width="3.2" height="3.2" rx="0.7" ry="0.7" fill="#ffe6ff" stroke="#6b2bbf" stroke-width="0.6" transform="rotate(45 -12.9 -2.9)"/>
      <rect x="2.5" y="-14.5" width="2.8" height="2.8" rx="0.6" ry="0.6" fill="#fff0ff" stroke="#6b2bbf" stroke-width="0.6" transform="rotate(45 3.9 -13.1)"/>
      <rect x="-7.5" y="10.5" width="2.8" height="2.8" rx="0.6" ry="0.6" fill="#fff0ff" stroke="#6b2bbf" stroke-width="0.6" transform="rotate(45 -6.1 11.9)"/>
    </g>
  </g>

  <!-- Frame 4 -->
  <g id="frame4-opt2-03ec7a1c" transform="translate(0,32)">
    <g transform="translate(16,16)">
      <circle cx="0" cy="0" r="12" fill="url(#gradGlowViolet)" fill-opacity="0.6"/>
      <g transform="rotate(35) scale(0.9)">
        <path d="M 0,-10 L 1.531,-3.696 L 7.071,-7.071 L 3.696,-1.531 L 10,0 L 3.696,1.531 L 7.071,7.071 L 1.531,3.696 L 0,10 L -1.531,3.696 L -7.071,7.071 L -3.696,1.531 L -10,0 L -3.696,-1.531 L -7.071,-7.071 L -1.531,-3.696 Z" fill="url(#gradVioletCore)" stroke="#36116a" stroke-width="1.4" stroke-linejoin="round" stroke-linecap="round"/>
        <circle cx="0" cy="0" r="1.7" fill="#ffffff" fill-opacity="0.68"/>
        <circle cx="3.2" cy="-3.0" r="2.4" fill="url(#gradHighlight)"/>
      </g>
      <rect x="9.5" y="6.5" width="3" height="3" rx="0.6" ry="0.6" fill="#ffdfff" stroke="#5f1aa0" stroke-width="0.6" transform="rotate(45 11 8)"/>
      <rect x="-10.5" y="0.5" width="3" height="3" rx="0.6" ry="0.6" fill="#ffdfff" stroke="#5f1aa0" stroke-width="0.6" transform="rotate(45 -9 2)"/>
    </g>
  </g>

  <!-- Frame 5 -->
  <g id="frame5-opt2-03ec7a1c" transform="translate(32,32)">
    <g transform="translate(16,16)">
      <circle cx="0" cy="0" r="15" fill="url(#gradGlowViolet)" fill-opacity="0.75"/>
      <g transform="rotate(-12) scale(1.2)">
        <path d="M 0,-10 L 1.531,-3.696 L 7.071,-7.071 L 3.696,-1.531 L 10,0 L 3.696,1.531 L 7.071,7.071 L 1.531,3.696 L 0,10 L -1.531,3.696 L -7.071,7.071 L -3.696,1.531 L -10,0 L -3.696,-1.531 L -7.071,-7.071 L -1.531,-3.696 Z" fill="url(#gradVioletCore)" stroke="#2a0b57" stroke-width="1.4" stroke-linejoin="round" stroke-linecap="round"/>
        <circle cx="0" cy="0" r="2" fill="#ffffff" fill-opacity="0.72"/>
        <circle cx="3.6" cy="-3.2" r="2.7" fill="url(#gradHighlight)"/>
      </g>
      <rect x="12.5" y="-7.5" width="3.2" height="3.2" rx="0.7" ry="0.7" fill="#ffe6ff" stroke="#6b2bbf" stroke-width="0.6" transform="rotate(45 14.1 -5.9)"/>
      <rect x="-13.5" y="4.5" width="3.2" height="3.2" rx="0.7" ry="0.7" fill="#ffe6ff" stroke="#6b2bbf" stroke-width="0.6" transform="rotate(45 -11.9 6.1)"/>
      <rect x="-1.6" y="12.4" width="3" height="3" rx="0.6" ry="0.6" fill="#fff0ff" stroke="#6b2bbf" stroke-width="0.6" transform="rotate(45 0 13.9)"/>
    </g>
  </g>

  <!-- Frame 6 -->
  <g id="frame6-opt2-03ec7a1c" transform="translate(64,32)">
    <g transform="translate(16,16)">
      <circle cx="0" cy="0" r="9" fill="url(#gradGlowViolet)" fill-opacity="0.4"/>
      <g transform="rotate(0) scale(0.7)">
        <path d="M 0,-10 L 1.531,-3.696 L 7.071,-7.071 L 3.696,-1.531 L 10,0 L 3.696,1.531 L 7.071,7.071 L 1.531,3.696 L 0,10 L -1.531,3.696 L -7.071,7.071 L -3.696,1.531 L -10,0 L -3.696,-1.531 L -7.071,-7.071 L -1.531,-3.696 Z" fill="url(#gradVioletCore)" stroke="#3a0a6a" stroke-width="1.4" stroke-linejoin="round" stroke-linecap="round"/>
        <circle cx="0" cy="0" r="1.5" fill="#ffffff" fill-opacity="0.64"/>
        <circle cx="3.2" cy="-3.2" r="2.1" fill="url(#gradHighlight)"/>
      </g>
      <rect x="-11.5" y="-8.5" width="3" height="3" rx="0.6" ry="0.6" fill="#ffdfff" stroke="#5f1aa0" stroke-width="0.6" transform="rotate(45 -10 -7)"/>
    </g>
  </g>

  <!-- Frame 7 -->
  <g id="frame7-opt2-03ec7a1c" transform="translate(0,64)">
    <g transform="translate(16,16)">
      <circle cx="0" cy="0" r="7" fill="url(#gradGlowViolet)" fill-opacity="0.25"/>
      <g transform="rotate(0) scale(0.5)">
        <path d="M 0,-10 L 1.531,-3.696 L 7.071,-7.071 L 3.696,-1.531 L 10,0 L 3.696,1.531 L 7.071,7.071 L 1.531,3.696 L 0,10 L -1.531,3.696 L -7.071,7.071 L -3.696,1.531 L -10,0 L -3.696,-1.531 L -7.071,-7.071 L -1.531,-3.696 Z" fill="url(#gradVioletCore)" stroke="#441477" stroke-width="1.4" stroke-linejoin="round" stroke-linecap="round"/>
        <circle cx="0" cy="0" r="1.2" fill="#ffffff" fill-opacity="0.6"/>
        <circle cx="3.0" cy="-3.0" r="1.8" fill="url(#gradHighlight)"/>
      </g>
      <rect x="8.4" y="-9.4" width="2.6" height="2.6" rx="0.55" ry="0.55" fill="#ffe6ff" fill-opacity="0.5" stroke="#6b2bbf" stroke-width="0.5" transform="rotate(45 9.7 -8.1)"/>
    </g>
  </g>

  <!-- Frame 8 -->
  <g id="frame8-opt2-03ec7a1c" transform="translate(32,64)">
    <g transform="translate(16,16)">
      <circle cx="0" cy="0" r="11" fill="url(#gradGlowViolet)" fill-opacity="0.5"/>
      <g transform="rotate(15) scale(0.8)">
        <path d="M 0,-10 L 1.531,-3.696 L 7.071,-7.071 L 3.696,-1.531 L 10,0 L 3.696,1.531 L 7.071,7.071 L 1.531,3.696 L 0,10 L -1.531,3.696 L -7.071,7.071 L -3.696,1.531 L -10,0 L -3.696,-1.531 L -7.071,-7.071 L -1.531,-3.696 Z" fill="url(#gradVioletCore)" stroke="#36116a" stroke-width="1.4" stroke-linejoin="round" stroke-linecap="round"/>
        <circle cx="0" cy="0" r="1.5" fill="#ffffff" fill-opacity="0.66"/>
        <circle cx="3.2" cy="-3.2" r="2.2" fill="url(#gradHighlight)"/>
      </g>
      <rect x="10.5" y="-10.5" width="3" height="3" rx="0.6" ry="0.6" fill="#ffe6ff" stroke="#6b2bbf" stroke-width="0.6" transform="rotate(45 12 -9)"/>
      <rect x="-9.5" y="8.5" width="3" height="3" rx="0.6" ry="0.6" fill="#ffe6ff" stroke="#6b2bbf" stroke-width="0.6" transform="rotate(45 -8 10)"/>
    </g>
  </g>

  <!-- Frame 9 intentionally left empty (cell 3,3) to keep background transparent and use only first 8 cells -->
</svg>