<svg xmlns="http://www.w3.org/2000/svg" width="640" height="640" viewBox="0 0 640 640">
  <rect width="640" height="640" fill="#090d1a"/>
  <circle cx="520" cy="116" r="76" fill="#243761"/>
  <circle cx="505" cy="98" r="59" fill="#3f5485"/>
  <circle cx="488" cy="83" r="37" fill="#6275a5"/>
  <path d="M0 500 80 462 142 484 217 438 298 480 379 451 452 486 535 444 640 492V640H0Z" fill="#151d36"/>
  <path d="M0 552 96 518 164 544 250 508 338 550 426 516 518 546 640 510V640H0Z" fill="#1f2b4d"/>
  <g fill="#f8fafc">
    <circle cx="58" cy="92" r="2"/><circle cx="145" cy="57" r="2"/><circle cx="237" cy="128" r="2"/>
    <circle cx="329" cy="68" r="3"/><circle cx="412" cy="156" r="2"/><circle cx="594" cy="66" r="2"/>
    <circle cx="82" cy="210" r="3"/><circle cx="188" cy="184" r="2"/><circle cx="294" cy="236" r="2"/>
    <circle cx="375" cy="206" r="2"/><circle cx="475" cy="250" r="3"/><circle cx="578" cy="211" r="2"/>
    <circle cx="34" cy="338" r="2"/><circle cx="129" cy="294" r="2"/><circle cx="228" cy="356" r="3"/>
    <circle cx="342" cy="318" r="2"/><circle cx="433" cy="374" r="2"/><circle cx="604" cy="330" r="3"/>
  </g>
  <g fill="#6ed3ff">
    <circle cx="105" cy="145" r="2"/><circle cx="267" cy="42" r="2"/><circle cx="397" cy="272" r="2"/>
    <circle cx="548" cy="292" r="2"/><circle cx="168" cy="402" r="2"/><circle cx="502" cy="410" r="2"/>
  </g>
</svg>
