<svg xmlns="http://www.w3.org/2000/svg" width="128" height="128" viewBox="0 0 128 128">
  <rect width="128" height="128" fill="none"/>
  <defs>
    <g id="ship">
      <path d="M32 7 45 50 32 43 19 50Z" fill="#4cc9f0" stroke="#e6fbff" stroke-width="3" stroke-linejoin="round"/>
      <path d="M32 19 38 41 32 37 26 41Z" fill="#13314a"/>
      <circle cx="32" cy="31" r="5" fill="#fff4a3"/>
      <path d="M24 53 28 46 30 59Z" fill="#ffb703"/>
      <path d="M40 53 36 46 34 59Z" fill="#ffb703"/>
    </g>
  </defs>
  <use href="#ship" x="0" y="0" opacity="0.95"/>
  <path d="M16 16 22 19M45 14 40 21M48 38 55 42M13 39 8 45" stroke="#fca5a5" stroke-width="3" stroke-linecap="round"/>
  <use href="#ship" x="64" y="0" opacity="0.65"/>
  <path d="M80 15 87 20M112 18 105 24M109 44 119 49M78 43 70 50" stroke="#fca5a5" stroke-width="3" stroke-linecap="round"/>
  <g transform="translate(0 64)">
    <use href="#ship" opacity="0.9"/>
    <path d="M19 18 28 22 23 31 31 34" fill="none" stroke="#fca5a5" stroke-width="3" stroke-linecap="round" stroke-linejoin="round"/>
    <path d="M47 18 39 24 44 32 35 37" fill="none" stroke="#fca5a5" stroke-width="3" stroke-linecap="round" stroke-linejoin="round"/>
  </g>
  <use href="#ship" x="64" y="64"/>
</svg>
