<svg xmlns="http://www.w3.org/2000/svg" width="384" height="256" viewBox="0 0 384 256">
  <defs>
    <radialGradient id="blastCore" cx="50%" cy="50%" r="60%">
      <stop offset="0" stop-color="#ffffff"/>
      <stop offset="0.28" stop-color="#ffe7a3"/>
      <stop offset="0.58" stop-color="#ff7a2f"/>
      <stop offset="1" stop-color="#ff2448" stop-opacity="0"/>
    </radialGradient>
    <radialGradient id="blueFlash" cx="50%" cy="50%" r="65%">
      <stop offset="0" stop-color="#dff8ff"/>
      <stop offset="0.45" stop-color="#66d9ff" stop-opacity="0.78"/>
      <stop offset="1" stop-color="#377dff" stop-opacity="0"/>
    </radialGradient>
  </defs>
  <g transform="translate(0 0)">
    <circle cx="64" cy="64" r="18" fill="url(#blueFlash)" opacity="0.82"/>
    <path d="M64 34 L71 58 L99 54 L76 69 L88 96 L64 78 L40 96 L52 69 L29 54 L57 58 Z" fill="#ffe7a3" opacity="0.92"/>
    <circle cx="64" cy="64" r="9" fill="#ffffff"/>
  </g>
  <g transform="translate(128 0)">
    <circle cx="64" cy="64" r="34" fill="url(#blastCore)" opacity="0.95"/>
    <path d="M64 14 L75 47 L111 36 L87 65 L112 93 L76 82 L64 116 L52 82 L16 93 L41 65 L17 36 L53 47 Z" fill="#ffcf57" opacity="0.9"/>
    <circle cx="64" cy="64" r="14" fill="#ffffff"/>
  </g>
  <g transform="translate(256 0)">
    <circle cx="64" cy="64" r="48" fill="url(#blastCore)" opacity="0.86"/>
    <path d="M64 5 L78 41 L121 24 L94 62 L124 101 L80 86 L64 123 L48 86 L4 101 L34 62 L7 24 L50 41 Z" fill="#ff8a35" opacity="0.78"/>
    <path d="M25 36 L10 22 M103 40 L123 26 M28 100 L12 116 M101 96 L121 113" stroke="#ffe7a3" stroke-width="5" stroke-linecap="round"/>
  </g>
  <g transform="translate(0 128)">
    <circle cx="64" cy="64" r="52" fill="url(#blastCore)" opacity="0.55"/>
    <circle cx="64" cy="64" r="28" fill="#ff7a2f" opacity="0.48"/>
    <path d="M30 28 L14 16 M100 30 L118 14 M28 98 L9 116 M96 101 L118 119 M64 13 L64 0 M64 128 L64 112" stroke="#ffcf57" stroke-width="4" stroke-linecap="round" opacity="0.86"/>
  </g>
  <g transform="translate(128 128)">
    <circle cx="64" cy="64" r="42" fill="#ff7a2f" opacity="0.26"/>
    <circle cx="64" cy="64" r="22" fill="#ff2448" opacity="0.25"/>
    <path d="M35 33 L21 23 M94 35 L109 24 M36 96 L20 108 M94 96 L109 110" stroke="#ffcf57" stroke-width="3" stroke-linecap="round" opacity="0.68"/>
    <circle cx="42" cy="75" r="4" fill="#ffe7a3" opacity="0.6"/>
    <circle cx="84" cy="52" r="3" fill="#ffffff" opacity="0.56"/>
  </g>
  <g transform="translate(256 128)">
    <circle cx="64" cy="64" r="30" fill="#ff7a2f" opacity="0.16"/>
    <circle cx="64" cy="64" r="15" fill="#ff2448" opacity="0.12"/>
    <circle cx="49" cy="52" r="3" fill="#ffe7a3" opacity="0.36"/>
    <circle cx="78" cy="72" r="2.5" fill="#ffffff" opacity="0.32"/>
  </g>
</svg>
