<svg xmlns="http://www.w3.org/2000/svg" width="128" height="128" viewBox="0 0 128 128">
  <rect width="128" height="128" fill="none"/>
  <g fill="#ef4444" stroke="#fee2e2" stroke-width="2" stroke-linejoin="round">
    <path d="M10 22 23 12h18l13 10v20L41 52H23L10 42Z"/>
    <path d="M76 19 89 9h18l13 10v20l-13 10H89L76 39Z"/>
    <path d="M8 86 23 72h18l15 14v22l-15 10H23L8 108Z"/>
    <path d="M74 83 89 69h18l15 14v22l-15 10H89l-15-10Z"/>
  </g>
  <g fill="#111827">
    <circle cx="24" cy="31" r="4"/><circle cx="40" cy="31" r="4"/>
    <circle cx="90" cy="28" r="4"/><circle cx="106" cy="28" r="4"/>
    <circle cx="24" cy="96" r="4"/><circle cx="40" cy="96" r="4"/>
    <circle cx="90" cy="93" r="4"/><circle cx="106" cy="93" r="4"/>
  </g>
  <g stroke="#fca5a5" stroke-width="3" stroke-linecap="round">
    <path d="M17 18 8 7M47 18l9-11M81 13l-11-8M115 13l11-8"/>
    <path d="M16 78 6 67M48 78l10-11M82 74l-11-10M114 74l11-10"/>
  </g>
  <g fill="#fde047">
    <path d="m63 18 3 6 7 1-5 5 1 7-6-3-6 3 1-7-5-5 7-1Z"/>
    <path d="m63 82 3 6 7 1-5 5 1 7-6-3-6 3 1-7-5-5 7-1Z"/>
  </g>
</svg>
