<svg xmlns="http://www.w3.org/2000/svg" width="256" height="64" viewBox="0 0 256 64">
  <rect width="256" height="64" fill="none"/>
  <g stroke="#f8fafc" stroke-width="2" stroke-linejoin="round">
    <path d="M12 27 25 16h14l13 11v18L39 53H25L12 45Z" fill="#a3e635"/>
    <path d="M79 27 92 17h12l12 10v16l-12 8H92l-13-8Z" fill="#84cc16"/>
    <path d="M145 28 155 18h12l10 10v13l-10 7h-12l-10-7Z" fill="#65a30d"/>
    <path d="M212 32 221 25h10l9 7v8l-9 6h-10l-9-6Z" fill="#3f6212"/>
  </g>
  <g fill="#101827">
    <circle cx="25" cy="33" r="4"/><circle cx="39" cy="33" r="4"/>
    <circle cx="92" cy="33" r="3"/><circle cx="104" cy="33" r="3"/>
    <circle cx="156" cy="34" r="3"/><circle cx="166" cy="34" r="3"/>
  </g>
  <g stroke="#f87171" stroke-width="3" stroke-linecap="round">
    <path d="M23 21 31 36 28 49M95 20l-2 14 10 13M153 21l9 10-4 14"/>
  </g>
  <g fill="#f97316">
    <circle cx="122" cy="17" r="3"/><circle cx="139" cy="47" r="2"/><circle cx="190" cy="22" r="3"/><circle cx="202" cy="49" r="2"/><circle cx="246" cy="29" r="3"/>
  </g>
</svg>
