<svg xmlns="http://www.w3.org/2000/svg" width="256" height="64" viewBox="0 0 256 64">
  <rect width="256" height="64" fill="none"/>
  <g fill="#a3e635" stroke="#f8fafc" stroke-width="2" stroke-linejoin="round">
    <path d="M12 27 25 16h14l13 11v18L39 53H25L12 45Z"/>
    <path d="M78 25 91 14h14l13 11v18l-13 8H91l-13-8Z"/>
    <path d="M140 27 153 16h14l13 11v18l-13 8h-14l-13-8Z"/>
    <path d="M206 25 219 14h14l13 11v18l-13 8h-14l-13-8Z"/>
  </g>
  <g fill="#101827">
    <circle cx="25" cy="33" r="4"/><circle cx="39" cy="33" r="4"/>
    <circle cx="91" cy="31" r="4"/><circle cx="105" cy="31" r="4"/>
    <circle cx="153" cy="33" r="4"/><circle cx="167" cy="33" r="4"/>
    <circle cx="219" cy="31" r="4"/><circle cx="233" cy="31" r="4"/>
  </g>
  <g stroke="#bef264" stroke-width="3" stroke-linecap="round">
    <path d="M18 18 10 9M46 18l8-9M84 16l-8-10M112 16l8-10M146 18l-8-9M174 18l8-9M212 16l-8-10M240 16l8-10"/>
  </g>
</svg>
