<svg xmlns="http://www.w3.org/2000/svg" width="36" height="36" viewBox="0 0 36 36">
  <g transform="translate(0 0)" opacity="0.8">
    <rect x="0" y="0" width="18" height="18" fill="none"/>
    <circle cx="9" cy="3" r="7" fill="#38bdf8" opacity="0.18"/>
    <circle cx="9" cy="3" r="4" fill="#38bdf8" opacity="0.34"/>
    <circle cx="9" cy="3" r="3" fill="#6ed3ff" opacity="0.92"/>
    <circle cx="9" cy="3" r="1.5" fill="#ffffff" opacity="0.95"/>
    <path d="M 9 3 L 1.48 5.74" stroke="#38bdf8" stroke-width="1.6" stroke-linecap="round"/>
    <path d="M 9 3 L 1.48 5.74" stroke="#ffffff" stroke-width="0.55" stroke-linecap="round" opacity="0.8"/>
    <path d="M 9 3 L 5.44 11.26" stroke="#38bdf8" stroke-width="1.6" stroke-linecap="round"/>
    <path d="M 9 3 L 5.44 11.26" stroke="#ffffff" stroke-width="0.55" stroke-linecap="round" opacity="0.8"/>
    <path d="M 9 3 L 12.17 10.35" stroke="#38bdf8" stroke-width="1.6" stroke-linecap="round"/>
    <path d="M 9 3 L 12.17 10.35" stroke="#ffffff" stroke-width="0.55" stroke-linecap="round" opacity="0.8"/>
    <path d="M 9 3 L 17.46 6.08" stroke="#38bdf8" stroke-width="1.6" stroke-linecap="round"/>
    <path d="M 9 3 L 17.46 6.08" stroke="#ffffff" stroke-width="0.55" stroke-linecap="round" opacity="0.8"/>
  </g>
  <g transform="translate(18 0)" opacity="1">
    <rect x="0" y="0" width="18" height="18" fill="none"/>
    <circle cx="9" cy="3" r="9" fill="#38bdf8" opacity="0.18"/>
    <circle cx="9" cy="3" r="6" fill="#38bdf8" opacity="0.34"/>
    <circle cx="9" cy="3" r="5" fill="#6ed3ff" opacity="0.92"/>
    <circle cx="9" cy="3" r="1.7000000000000002" fill="#ffffff" opacity="0.95"/>
    <path d="M 9 3 L -0.40 6.42" stroke="#38bdf8" stroke-width="1.6" stroke-linecap="round"/>
    <path d="M 9 3 L -0.40 6.42" stroke="#ffffff" stroke-width="0.55" stroke-linecap="round" opacity="0.8"/>
    <path d="M 9 3 L 1.64 11.17" stroke="#38bdf8" stroke-width="1.6" stroke-linecap="round"/>
    <path d="M 9 3 L 1.64 11.17" stroke="#ffffff" stroke-width="0.55" stroke-linecap="round" opacity="0.8"/>
    <path d="M 9 3 L 6.58 12.70" stroke="#38bdf8" stroke-width="1.6" stroke-linecap="round"/>
    <path d="M 9 3 L 6.58 12.70" stroke="#ffffff" stroke-width="0.55" stroke-linecap="round" opacity="0.8"/>
    <path d="M 9 3 L 11.66 13.67" stroke="#38bdf8" stroke-width="1.6" stroke-linecap="round"/>
    <path d="M 9 3 L 11.66 13.67" stroke="#ffffff" stroke-width="0.55" stroke-linecap="round" opacity="0.8"/>
    <path d="M 9 3 L 15.69 10.43" stroke="#38bdf8" stroke-width="1.6" stroke-linecap="round"/>
    <path d="M 9 3 L 15.69 10.43" stroke="#ffffff" stroke-width="0.55" stroke-linecap="round" opacity="0.8"/>
    <path d="M 9 3 L 19.34 6.76" stroke="#38bdf8" stroke-width="1.6" stroke-linecap="round"/>
    <path d="M 9 3 L 19.34 6.76" stroke="#ffffff" stroke-width="0.55" stroke-linecap="round" opacity="0.8"/>
  </g>
  <g transform="translate(0 18)" opacity="0.78">
    <rect x="0" y="0" width="18" height="18" fill="none"/>
    <circle cx="9" cy="3" r="11" fill="#38bdf8" opacity="0.18"/>
    <circle cx="9" cy="3" r="8" fill="#38bdf8" opacity="0.34"/>
    <circle cx="9" cy="3" r="7" fill="#6ed3ff" opacity="0.92"/>
    <circle cx="9" cy="3" r="2.3800000000000003" fill="#ffffff" opacity="0.95"/>
    <path d="M 9 3 L -2.28 7.10" stroke="#38bdf8" stroke-width="1.6" stroke-linecap="round"/>
    <path d="M 9 3 L -2.28 7.10" stroke="#ffffff" stroke-width="0.55" stroke-linecap="round" opacity="0.8"/>
    <path d="M 9 3 L -0.96 11.36" stroke="#38bdf8" stroke-width="1.6" stroke-linecap="round"/>
    <path d="M 9 3 L -0.96 11.36" stroke="#ffffff" stroke-width="0.55" stroke-linecap="round" opacity="0.8"/>
    <path d="M 9 3 L 3.00 13.39" stroke="#38bdf8" stroke-width="1.6" stroke-linecap="round"/>
    <path d="M 9 3 L 3.00 13.39" stroke="#ffffff" stroke-width="0.55" stroke-linecap="round" opacity="0.8"/>
    <path d="M 9 3 L 6.74 15.80" stroke="#38bdf8" stroke-width="1.6" stroke-linecap="round"/>
    <path d="M 9 3 L 6.74 15.80" stroke="#ffffff" stroke-width="0.55" stroke-linecap="round" opacity="0.8"/>
    <path d="M 9 3 L 11.08 14.82" stroke="#38bdf8" stroke-width="1.6" stroke-linecap="round"/>
    <path d="M 9 3 L 11.08 14.82" stroke="#ffffff" stroke-width="0.55" stroke-linecap="round" opacity="0.8"/>
    <path d="M 9 3 L 15.50 14.26" stroke="#38bdf8" stroke-width="1.6" stroke-linecap="round"/>
    <path d="M 9 3 L 15.50 14.26" stroke="#ffffff" stroke-width="0.55" stroke-linecap="round" opacity="0.8"/>
    <path d="M 9 3 L 18.19 10.71" stroke="#38bdf8" stroke-width="1.6" stroke-linecap="round"/>
    <path d="M 9 3 L 18.19 10.71" stroke="#ffffff" stroke-width="0.55" stroke-linecap="round" opacity="0.8"/>
    <path d="M 9 3 L 21.22 7.45" stroke="#38bdf8" stroke-width="1.6" stroke-linecap="round"/>
    <path d="M 9 3 L 21.22 7.45" stroke="#ffffff" stroke-width="0.55" stroke-linecap="round" opacity="0.8"/>
  </g>
  <g transform="translate(18 18)" opacity="0.42">
    <rect x="0" y="0" width="18" height="18" fill="none"/>
    <circle cx="9" cy="3" r="8" fill="#38bdf8" opacity="0.18"/>
    <circle cx="9" cy="3" r="5" fill="#38bdf8" opacity="0.34"/>
    <circle cx="9" cy="3" r="4" fill="#6ed3ff" opacity="0.92"/>
    <circle cx="9" cy="3" r="1.5" fill="#ffffff" opacity="0.95"/>
    <path d="M 9 3 L 0.54 6.08" stroke="#38bdf8" stroke-width="1.6" stroke-linecap="round"/>
    <path d="M 9 3 L 0.54 6.08" stroke="#ffffff" stroke-width="0.55" stroke-linecap="round" opacity="0.8"/>
    <path d="M 9 3 L 3.26 11.19" stroke="#38bdf8" stroke-width="1.6" stroke-linecap="round"/>
    <path d="M 9 3 L 3.26 11.19" stroke="#ffffff" stroke-width="0.55" stroke-linecap="round" opacity="0.8"/>
    <path d="M 9 3 L 9.00 12.00" stroke="#38bdf8" stroke-width="1.6" stroke-linecap="round"/>
    <path d="M 9 3 L 9.00 12.00" stroke="#ffffff" stroke-width="0.55" stroke-linecap="round" opacity="0.8"/>
    <path d="M 9 3 L 14.74 11.19" stroke="#38bdf8" stroke-width="1.6" stroke-linecap="round"/>
    <path d="M 9 3 L 14.74 11.19" stroke="#ffffff" stroke-width="0.55" stroke-linecap="round" opacity="0.8"/>
    <path d="M 9 3 L 17.46 6.08" stroke="#38bdf8" stroke-width="1.6" stroke-linecap="round"/>
    <path d="M 9 3 L 17.46 6.08" stroke="#ffffff" stroke-width="0.55" stroke-linecap="round" opacity="0.8"/>
  </g>
</svg>
