<svg xmlns="http://www.w3.org/2000/svg" width="10" height="32" viewBox="0 0 10 32">
  <g transform="translate(0 0)" opacity="0.75">
    <rect x="0" y="0" width="5" height="16" fill="none"/>
    <circle cx="2.5" cy="14" r="2" fill="#ef4444" opacity="0.35"/>
    <circle cx="2.5" cy="14" r="1" fill="#fca5a5"/>
    <circle cx="2.5" cy="14" r="0.65" fill="#ffffff"/>
    <path d="M 2.5 14 L 1.25 11" stroke="#ef4444" stroke-width="0.8" stroke-linecap="round"/>
    <path d="M 2.5 14 L 3.75 10" stroke="#ef4444" stroke-width="0.8" stroke-linecap="round"/>
  </g>
  <g transform="translate(5 0)" opacity="1">
    <rect x="0" y="0" width="5" height="16" fill="none"/>
    <circle cx="2.5" cy="14" r="2.6" fill="#ef4444" opacity="0.35"/>
    <circle cx="2.5" cy="14" r="1.6" fill="#fca5a5"/>
    <circle cx="2.5" cy="14" r="0.65" fill="#ffffff"/>
    <path d="M 2.5 14 L 0.8333333333333333 11" stroke="#ef4444" stroke-width="0.8" stroke-linecap="round"/>
    <path d="M 2.5 14 L 2.5 10" stroke="#ef4444" stroke-width="0.8" stroke-linecap="round"/>
    <path d="M 2.5 14 L 4.166666666666667 9" stroke="#ef4444" stroke-width="0.8" stroke-linecap="round"/>
  </g>
  <g transform="translate(0 16)" opacity="0.72">
    <rect x="0" y="0" width="5" height="16" fill="none"/>
    <circle cx="2.5" cy="14" r="3.2" fill="#ef4444" opacity="0.35"/>
    <circle cx="2.5" cy="14" r="2.2" fill="#fca5a5"/>
    <circle cx="2.5" cy="14" r="0.65" fill="#ffffff"/>
    <path d="M 2.5 14 L 0.625 11" stroke="#ef4444" stroke-width="0.8" stroke-linecap="round"/>
    <path d="M 2.5 14 L 1.875 10" stroke="#ef4444" stroke-width="0.8" stroke-linecap="round"/>
    <path d="M 2.5 14 L 3.125 9" stroke="#ef4444" stroke-width="0.8" stroke-linecap="round"/>
    <path d="M 2.5 14 L 4.375 8" stroke="#ef4444" stroke-width="0.8" stroke-linecap="round"/>
  </g>
  <g transform="translate(5 16)" opacity="0.35">
    <rect x="0" y="0" width="5" height="16" fill="none"/>
    <circle cx="2.5" cy="14" r="2.2" fill="#ef4444" opacity="0.35"/>
    <circle cx="2.5" cy="14" r="1.2" fill="#fca5a5"/>
    <circle cx="2.5" cy="14" r="0.65" fill="#ffffff"/>
    <path d="M 2.5 14 L 1.25 11" stroke="#ef4444" stroke-width="0.8" stroke-linecap="round"/>
    <path d="M 2.5 14 L 3.75 10" stroke="#ef4444" stroke-width="0.8" stroke-linecap="round"/>
  </g>
</svg>
