<svg xmlns="http://www.w3.org/2000/svg" width="8" height="36" viewBox="0 0 8 36">
  <g transform="translate(0 0)" opacity="0.75">
    <rect x="0" y="0" width="4" height="18" fill="none"/>
    <circle cx="2" cy="2" r="2" fill="#38bdf8" opacity="0.35"/>
    <circle cx="2" cy="2" r="1" fill="#6ed3ff"/>
    <circle cx="2" cy="2" r="0.65" fill="#ffffff"/>
    <path d="M 2 2 L 1 5" stroke="#38bdf8" stroke-width="0.8" stroke-linecap="round"/>
    <path d="M 2 2 L 3 6" stroke="#38bdf8" stroke-width="0.8" stroke-linecap="round"/>
  </g>
  <g transform="translate(4 0)" opacity="1">
    <rect x="0" y="0" width="4" height="18" fill="none"/>
    <circle cx="2" cy="2" r="2.6" fill="#38bdf8" opacity="0.35"/>
    <circle cx="2" cy="2" r="1.6" fill="#6ed3ff"/>
    <circle cx="2" cy="2" r="0.65" fill="#ffffff"/>
    <path d="M 2 2 L 0.6666666666666667 5" stroke="#38bdf8" stroke-width="0.8" stroke-linecap="round"/>
    <path d="M 2 2 L 2 6" stroke="#38bdf8" stroke-width="0.8" stroke-linecap="round"/>
    <path d="M 2 2 L 3.333333333333333 7" stroke="#38bdf8" stroke-width="0.8" stroke-linecap="round"/>
  </g>
  <g transform="translate(0 18)" opacity="0.72">
    <rect x="0" y="0" width="4" height="18" fill="none"/>
    <circle cx="2" cy="2" r="3.2" fill="#38bdf8" opacity="0.35"/>
    <circle cx="2" cy="2" r="2.2" fill="#6ed3ff"/>
    <circle cx="2" cy="2" r="0.65" fill="#ffffff"/>
    <path d="M 2 2 L 0.5 5" stroke="#38bdf8" stroke-width="0.8" stroke-linecap="round"/>
    <path d="M 2 2 L 1.5 6" stroke="#38bdf8" stroke-width="0.8" stroke-linecap="round"/>
    <path d="M 2 2 L 2.5 7" stroke="#38bdf8" stroke-width="0.8" stroke-linecap="round"/>
    <path d="M 2 2 L 3.5 8" stroke="#38bdf8" stroke-width="0.8" stroke-linecap="round"/>
  </g>
  <g transform="translate(4 18)" opacity="0.35">
    <rect x="0" y="0" width="4" height="18" fill="none"/>
    <circle cx="2" cy="2" r="2.2" fill="#38bdf8" opacity="0.35"/>
    <circle cx="2" cy="2" r="1.2" fill="#6ed3ff"/>
    <circle cx="2" cy="2" r="0.65" fill="#ffffff"/>
    <path d="M 2 2 L 1 5" stroke="#38bdf8" stroke-width="0.8" stroke-linecap="round"/>
    <path d="M 2 2 L 3 6" stroke="#38bdf8" stroke-width="0.8" stroke-linecap="round"/>
  </g>
</svg>
