<svg xmlns="http://www.w3.org/2000/svg" width="36" height="36" viewBox="0 0 36 36">
  <g transform="translate(0 0)" opacity="0.8">
    <rect x="0" y="0" width="18" height="18" fill="none"/>
    <circle cx="9" cy="15" r="7" fill="#ef4444" opacity="0.18"/>
    <circle cx="9" cy="15" r="4" fill="#ef4444" opacity="0.34"/>
    <circle cx="9" cy="15" r="3" fill="#fca5a5" opacity="0.92"/>
    <circle cx="9" cy="15" r="1.5" fill="#ffffff" opacity="0.95"/>
    <path d="M 9 15 L 1.48 12.26" stroke="#ef4444" stroke-width="1.6" stroke-linecap="round"/>
    <path d="M 9 15 L 1.48 12.26" stroke="#ffffff" stroke-width="0.55" stroke-linecap="round" opacity="0.8"/>
    <path d="M 9 15 L 5.44 6.74" stroke="#ef4444" stroke-width="1.6" stroke-linecap="round"/>
    <path d="M 9 15 L 5.44 6.74" stroke="#ffffff" stroke-width="0.55" stroke-linecap="round" opacity="0.8"/>
    <path d="M 9 15 L 12.17 7.65" stroke="#ef4444" stroke-width="1.6" stroke-linecap="round"/>
    <path d="M 9 15 L 12.17 7.65" stroke="#ffffff" stroke-width="0.55" stroke-linecap="round" opacity="0.8"/>
    <path d="M 9 15 L 17.46 11.92" stroke="#ef4444" stroke-width="1.6" stroke-linecap="round"/>
    <path d="M 9 15 L 17.46 11.92" stroke="#ffffff" stroke-width="0.55" stroke-linecap="round" opacity="0.8"/>
  </g>
  <g transform="translate(18 0)" opacity="1">
    <rect x="0" y="0" width="18" height="18" fill="none"/>
    <circle cx="9" cy="15" r="9" fill="#ef4444" opacity="0.18"/>
    <circle cx="9" cy="15" r="6" fill="#ef4444" opacity="0.34"/>
    <circle cx="9" cy="15" r="5" fill="#fca5a5" opacity="0.92"/>
    <circle cx="9" cy="15" r="1.7000000000000002" fill="#ffffff" opacity="0.95"/>
    <path d="M 9 15 L -0.40 11.58" stroke="#ef4444" stroke-width="1.6" stroke-linecap="round"/>
    <path d="M 9 15 L -0.40 11.58" stroke="#ffffff" stroke-width="0.55" stroke-linecap="round" opacity="0.8"/>
    <path d="M 9 15 L 1.64 6.83" stroke="#ef4444" stroke-width="1.6" stroke-linecap="round"/>
    <path d="M 9 15 L 1.64 6.83" stroke="#ffffff" stroke-width="0.55" stroke-linecap="round" opacity="0.8"/>
    <path d="M 9 15 L 6.58 5.30" stroke="#ef4444" stroke-width="1.6" stroke-linecap="round"/>
    <path d="M 9 15 L 6.58 5.30" stroke="#ffffff" stroke-width="0.55" stroke-linecap="round" opacity="0.8"/>
    <path d="M 9 15 L 11.66 4.33" stroke="#ef4444" stroke-width="1.6" stroke-linecap="round"/>
    <path d="M 9 15 L 11.66 4.33" stroke="#ffffff" stroke-width="0.55" stroke-linecap="round" opacity="0.8"/>
    <path d="M 9 15 L 15.69 7.57" stroke="#ef4444" stroke-width="1.6" stroke-linecap="round"/>
    <path d="M 9 15 L 15.69 7.57" stroke="#ffffff" stroke-width="0.55" stroke-linecap="round" opacity="0.8"/>
    <path d="M 9 15 L 19.34 11.24" stroke="#ef4444" stroke-width="1.6" stroke-linecap="round"/>
    <path d="M 9 15 L 19.34 11.24" stroke="#ffffff" stroke-width="0.55" stroke-linecap="round" opacity="0.8"/>
  </g>
  <g transform="translate(0 18)" opacity="0.78">
    <rect x="0" y="0" width="18" height="18" fill="none"/>
    <circle cx="9" cy="15" r="11" fill="#ef4444" opacity="0.18"/>
    <circle cx="9" cy="15" r="8" fill="#ef4444" opacity="0.34"/>
    <circle cx="9" cy="15" r="7" fill="#fca5a5" opacity="0.92"/>
    <circle cx="9" cy="15" r="2.3800000000000003" fill="#ffffff" opacity="0.95"/>
    <path d="M 9 15 L -2.28 10.90" stroke="#ef4444" stroke-width="1.6" stroke-linecap="round"/>
    <path d="M 9 15 L -2.28 10.90" stroke="#ffffff" stroke-width="0.55" stroke-linecap="round" opacity="0.8"/>
    <path d="M 9 15 L -0.96 6.64" stroke="#ef4444" stroke-width="1.6" stroke-linecap="round"/>
    <path d="M 9 15 L -0.96 6.64" stroke="#ffffff" stroke-width="0.55" stroke-linecap="round" opacity="0.8"/>
    <path d="M 9 15 L 3.00 4.61" stroke="#ef4444" stroke-width="1.6" stroke-linecap="round"/>
    <path d="M 9 15 L 3.00 4.61" stroke="#ffffff" stroke-width="0.55" stroke-linecap="round" opacity="0.8"/>
    <path d="M 9 15 L 6.74 2.20" stroke="#ef4444" stroke-width="1.6" stroke-linecap="round"/>
    <path d="M 9 15 L 6.74 2.20" stroke="#ffffff" stroke-width="0.55" stroke-linecap="round" opacity="0.8"/>
    <path d="M 9 15 L 11.08 3.18" stroke="#ef4444" stroke-width="1.6" stroke-linecap="round"/>
    <path d="M 9 15 L 11.08 3.18" stroke="#ffffff" stroke-width="0.55" stroke-linecap="round" opacity="0.8"/>
    <path d="M 9 15 L 15.50 3.74" stroke="#ef4444" stroke-width="1.6" stroke-linecap="round"/>
    <path d="M 9 15 L 15.50 3.74" stroke="#ffffff" stroke-width="0.55" stroke-linecap="round" opacity="0.8"/>
    <path d="M 9 15 L 18.19 7.29" stroke="#ef4444" stroke-width="1.6" stroke-linecap="round"/>
    <path d="M 9 15 L 18.19 7.29" stroke="#ffffff" stroke-width="0.55" stroke-linecap="round" opacity="0.8"/>
    <path d="M 9 15 L 21.22 10.55" stroke="#ef4444" stroke-width="1.6" stroke-linecap="round"/>
    <path d="M 9 15 L 21.22 10.55" stroke="#ffffff" stroke-width="0.55" stroke-linecap="round" opacity="0.8"/>
  </g>
  <g transform="translate(18 18)" opacity="0.42">
    <rect x="0" y="0" width="18" height="18" fill="none"/>
    <circle cx="9" cy="15" r="8" fill="#ef4444" opacity="0.18"/>
    <circle cx="9" cy="15" r="5" fill="#ef4444" opacity="0.34"/>
    <circle cx="9" cy="15" r="4" fill="#fca5a5" opacity="0.92"/>
    <circle cx="9" cy="15" r="1.5" fill="#ffffff" opacity="0.95"/>
    <path d="M 9 15 L 0.54 11.92" stroke="#ef4444" stroke-width="1.6" stroke-linecap="round"/>
    <path d="M 9 15 L 0.54 11.92" stroke="#ffffff" stroke-width="0.55" stroke-linecap="round" opacity="0.8"/>
    <path d="M 9 15 L 3.26 6.81" stroke="#ef4444" stroke-width="1.6" stroke-linecap="round"/>
    <path d="M 9 15 L 3.26 6.81" stroke="#ffffff" stroke-width="0.55" stroke-linecap="round" opacity="0.8"/>
    <path d="M 9 15 L 9.00 6.00" stroke="#ef4444" stroke-width="1.6" stroke-linecap="round"/>
    <path d="M 9 15 L 9.00 6.00" stroke="#ffffff" stroke-width="0.55" stroke-linecap="round" opacity="0.8"/>
    <path d="M 9 15 L 14.74 6.81" stroke="#ef4444" stroke-width="1.6" stroke-linecap="round"/>
    <path d="M 9 15 L 14.74 6.81" stroke="#ffffff" stroke-width="0.55" stroke-linecap="round" opacity="0.8"/>
    <path d="M 9 15 L 17.46 11.92" stroke="#ef4444" stroke-width="1.6" stroke-linecap="round"/>
    <path d="M 9 15 L 17.46 11.92" stroke="#ffffff" stroke-width="0.55" stroke-linecap="round" opacity="0.8"/>
  </g>
</svg>
