<svg xmlns="http://www.w3.org/2000/svg" width="8" height="36" viewBox="0 0 8 36">
  <defs><linearGradient id="beam" x1="0" y1="1" x2="0" y2="0"><stop offset="0" stop-color="#38bdf8"/><stop offset="0.45" stop-color="#6ed3ff"/><stop offset="1" stop-color="#ffffff"/></linearGradient></defs>
  <g transform="translate(0 0)" opacity="0.78">
    <rect x="0" y="0" width="4" height="18" fill="none"/>
    <path d="M 2 17 L 2 1" stroke="#38bdf8" stroke-width="4" stroke-linecap="round" opacity="0.32"/>
    <path d="M 2 17 L 2 1" stroke="url(#beam)" stroke-width="2.0999999999999996" stroke-linecap="round"/>
    <circle cx="2" cy="2" r="1.3333333333333333" fill="#ffffff" opacity="0.85"/>
  </g>
  <g transform="translate(4 0)" opacity="1">
    <rect x="0" y="0" width="4" height="18" fill="none"/>
    <path d="M 2.15 17 L 1.85 1" stroke="#38bdf8" stroke-width="4" stroke-linecap="round" opacity="0.32"/>
    <path d="M 2.15 17 L 1.85 1" stroke="url(#beam)" stroke-width="3" stroke-linecap="round"/>
    <circle cx="2.1500000000000004" cy="2" r="1.3333333333333333" fill="#ffffff" opacity="0.85"/>
  </g>
  <g transform="translate(0 18)" opacity="0.68">
    <rect x="0" y="0" width="4" height="18" fill="none"/>
    <path d="M 1.9 17 L 2.1 1" stroke="#38bdf8" stroke-width="4" stroke-linecap="round" opacity="0.32"/>
    <path d="M 1.9 17 L 2.1 1" stroke="url(#beam)" stroke-width="1.6500000000000001" stroke-linecap="round"/>
    <circle cx="1.9" cy="2" r="1.3333333333333333" fill="#ffffff" opacity="0.85"/>
  </g>
  <g transform="translate(4 18)" opacity="0.92">
    <rect x="0" y="0" width="4" height="18" fill="none"/>
    <path d="M 2 17 L 2 1" stroke="#38bdf8" stroke-width="4" stroke-linecap="round" opacity="0.32"/>
    <path d="M 2 17 L 2 1" stroke="url(#beam)" stroke-width="2.55" stroke-linecap="round"/>
    <circle cx="2" cy="2" r="1.3333333333333333" fill="#ffffff" opacity="0.85"/>
  </g>
</svg>
